<svg id="Color" xmlns="http://www.w3.org/2000/svg" width="32.799" height="27" viewBox="0 0 32.799 27">
  <path id="Color-2" data-name="Color" d="M10.933,27H8.2V23.623A4.73,4.73,0,0,1,12.818,18.9l.165,0h6.832A4.737,4.737,0,0,1,24.6,23.462l0,.162V27H21.866V23.623a2.035,2.035,0,0,0-1.93-2.02l-.121,0H12.983a2.039,2.039,0,0,0-2.047,1.906l0,.118V27ZM32.8,18.9H30.065V15.525l0-.119a2.048,2.048,0,0,0-1.856-1.9l-.191-.009H23.095a6.694,6.694,0,0,0,0-2.7h4.921l.164,0a4.8,4.8,0,0,1,3.188,1.351,4.683,4.683,0,0,1,1.425,3.118l.007.254V18.9Zm-30.066,0H0V15.525A4.732,4.732,0,0,1,4.618,10.8l.165,0H9.7a6.753,6.753,0,0,0,0,2.7H4.783a2.041,2.041,0,0,0-2.047,1.906l0,.119V18.9ZM16.4,17.549a5.4,5.4,0,1,1,5.467-5.4A5.439,5.439,0,0,1,16.4,17.549Zm0-8.1a2.7,2.7,0,1,0,2.734,2.7A2.72,2.72,0,0,0,16.4,9.45Zm8.884,0A4.76,4.76,0,0,1,20.5,4.725a4.783,4.783,0,0,1,9.565,0A4.759,4.759,0,0,1,25.283,9.45Zm0-6.75a2.025,2.025,0,1,0,2.049,2.025A2.04,2.04,0,0,0,25.283,2.7ZM7.516,9.45A4.76,4.76,0,0,1,2.733,4.725a4.784,4.784,0,0,1,9.566,0A4.76,4.76,0,0,1,7.516,9.45Zm0-6.75a2.025,2.025,0,1,0,2.05,2.025A2.04,2.04,0,0,0,7.516,2.7Z" transform="translate(0 0)"/>
</svg>
