<svg id="Component_445_9" data-name="Component 445 – 9" xmlns="http://www.w3.org/2000/svg" width="24" height="24" viewBox="0 0 24 24">
  <path id="Subtraction_1" data-name="Subtraction 1" d="M9,18a9,9,0,1,1,9-9A9.01,9.01,0,0,1,9,18ZM8.916,3a5.917,5.917,0,1,0,5.917,5.917A5.923,5.923,0,0,0,8.916,3Zm0,10.651A4.734,4.734,0,1,1,13.65,8.916,4.739,4.739,0,0,1,8.916,13.65ZM8.325,5.367v3.8l.172.173,2.092,2.092.837-.836L9.509,8.671v-3.3Z" transform="translate(3 3)" fill="#d18200"/>
  <rect id="Rectangle_240" data-name="Rectangle 240" width="24" height="24" fill="none"/>
</svg>
